<svg xmlns="http://www.w3.org/2000/svg" viewBox="0 0 512 512">
  <defs>
    <linearGradient id="grad" x1="0%" y1="0%" x2="100%" y2="100%">
      <stop offset="0%" style="stop-color:#22c55e;stop-opacity:1" />
      <stop offset="100%" style="stop-color:#16a34a;stop-opacity:1" />
    </linearGradient>
  </defs>
  <circle cx="256" cy="256" r="240" fill="url(#grad)" />
  <path d="M366 366c-30 30-72 48-118 48-93 0-168-75-168-168 0-46 18-88 48-118" stroke="white" stroke-width="40" stroke-linecap="round" fill="none" opacity="0.3"/>
  <path d="M256 136c-66 0-120 54-120 120 0 25 7 48 20 68l-20 72 72-20c20 13 43 20 68 20 66 0 120-54 120-120s-54-120-120-120z" fill="white"/>
  <path d="M336 288c-7-3-41-20-47-22-6-2-11-3-15 4-5 6-18 22-22 27-4 5-8 5-15 2-30-13-50-28-70-62-3-4 0-7 3-10 2-3 6-7 9-11 3-3 4-6 6-10 2-4 1-8-1-11-1-3-14-35-20-47-5-12-10-10-14-10h-12c-4 0-11 2-17 8-6 6-23 22-23 54s24 63 27 67c3 4 47 72 114 101 45 19 62 19 84 16 13-2 41-17 47-33s6-30 4-33c-2-3-7-5-14-8z" fill="#22c55e"/>
</svg>